<svg xmlns="http://www.w3.org/2000/svg" viewBox="0 0 640 360"><style>*{animation:none!important}@media(prefers-reduced-motion:reduce){*{animation:none!important}}.pulse{animation:pulse 1.8s ease-in-out infinite}.dash{stroke-dasharray:8 8;animation:dash 1.2s linear infinite}.float{animation:float 2.8s ease-in-out infinite}@keyframes pulse{50%{opacity:.35}}@keyframes dash{to{stroke-dashoffset:-32}}@keyframes float{50%{transform:translateY(-7px)}}</style><defs><linearGradient id="g" x1="0" y1="0" x2="1" y2="1"><stop stop-color="#0b1014"/><stop offset="1" stop-color="#101b1c"/></linearGradient><filter id="glow"><feGaussianBlur stdDeviation="4" result="b"/><feMerge><feMergeNode in="b"/><feMergeNode in="SourceGraphic"/></feMerge></filter></defs><rect width="640" height="360" rx="28" fill="url(#g)"/><path d="M0 300 C140 250 220 390 360 310 S560 250 640 290" fill="none" stroke="#22d3a6" stroke-opacity=".08" stroke-width="2"/><text x="36" y="48" fill="#eaf2f2" font-family="Inter,Arial" font-size="24" font-weight="800">AI SKILLS</text><text x="36" y="72" fill="#8fa3a6" font-family="monospace" font-size="13">One gateway · Eight skills</text><rect x="45" y="150" width="112" height="70" rx="16" fill="#121b20" stroke="#33454c"/><text x="101" y="190" text-anchor="middle" fill="#dce8e8" font-family="monospace" font-size="13" font-weight="700">INPUT</text><path id="p0" d="M157 185 H190" stroke="#5d7379" stroke-width="2"/><circle r="5" fill="#22d3a6" filter="url(#glow)"></circle><rect x="190" y="150" width="112" height="70" rx="16" fill="#121b20" stroke="#22d3a6"/><text x="246" y="190" text-anchor="middle" fill="#dce8e8" font-family="monospace" font-size="13" font-weight="700">ROUTER</text><path id="p1" d="M302 185 H335" stroke="#5d7379" stroke-width="2"/><circle r="5" fill="#22d3a6" filter="url(#glow)"></circle><rect x="335" y="150" width="112" height="70" rx="16" fill="#121b20" stroke="#22d3a6"/><text x="391" y="190" text-anchor="middle" fill="#dce8e8" font-family="monospace" font-size="13" font-weight="700">SKILLS</text><path id="p2" d="M447 185 H480" stroke="#5d7379" stroke-width="2"/><circle r="5" fill="#22d3a6" filter="url(#glow)"></circle><rect x="480" y="150" width="112" height="70" rx="16" fill="#121b20" stroke="#33454c"/><text x="536" y="190" text-anchor="middle" fill="#dce8e8" font-family="monospace" font-size="13" font-weight="700">OUTPUT</text><text x="604" y="332" text-anchor="end" fill="#587075" font-family="monospace" font-size="10">DEMO PROJECT VISUAL</text></svg>